<?xml version="1.0" encoding="UTF-8" standalone="no"?>
<!DOCTYPE svg PUBLIC "-//W3C//DTD SVG 1.1//EN" "http://www.w3.org/Graphics/SVG/1.1/DTD/svg11.dtd">
<svg width="100%" height="100%" viewBox="0 0 444 444" version="1.1" xmlns="http://www.w3.org/2000/svg" xmlns:xlink="http://www.w3.org/1999/xlink" xml:space="preserve" xmlns:serif="http://www.serif.com/" style="fill-rule:evenodd;clip-rule:evenodd;stroke-linejoin:round;stroke-miterlimit:2;">
    <g transform="matrix(3.2873,0,0,3.2873,0,0)">
        <circle cx="64.5" cy="64.5" r="64.5" style="fill:rgb(101,184,121);"/>
    </g>
    <g transform="matrix(3.2873,0,0,3.2873,0,0)">
        <circle cx="70.5" cy="70.5" r="64.5" style="fill:rgb(242,235,235);"/>
    </g>
    <g transform="matrix(3.47013,0,0,3.47013,43.2739,164.888)">
        <path d="M11.333,34C11.027,34 10.766,33.908 10.551,33.724C10.367,33.509 10.275,33.249 10.275,32.942L10.275,5.894L1.443,5.894C1.137,5.894 0.876,5.802 0.661,5.618C0.477,5.403 0.385,5.143 0.385,4.836L0.385,2.904C0.385,2.597 0.477,2.337 0.661,2.122C0.876,1.907 1.137,1.8 1.443,1.8L23.615,1.8C23.953,1.8 24.213,1.907 24.397,2.122C24.612,2.306 24.719,2.567 24.719,2.904L24.719,4.836C24.719,5.143 24.612,5.403 24.397,5.618C24.183,5.802 23.922,5.894 23.615,5.894L14.829,5.894L14.829,32.942C14.829,33.249 14.722,33.509 14.507,33.724C14.293,33.908 14.032,34 13.725,34L11.333,34ZM34.674,34.46C31.3,34.46 28.678,33.509 26.808,31.608C24.968,29.707 23.986,27.177 23.864,24.018L23.818,22.04L23.864,20.062C23.986,16.934 24.983,14.419 26.854,12.518C28.724,10.586 31.331,9.62 34.674,9.62C38.016,9.62 40.623,10.586 42.494,12.518C44.364,14.419 45.361,16.934 45.484,20.062C45.514,20.399 45.53,21.059 45.53,22.04C45.53,23.021 45.514,23.681 45.484,24.018C45.361,27.177 44.364,29.707 42.494,31.608C40.654,33.509 38.047,34.46 34.674,34.46ZM34.674,30.918C36.606,30.918 38.124,30.305 39.228,29.078C40.362,27.851 40.976,26.088 41.068,23.788C41.098,23.481 41.114,22.899 41.114,22.04C41.114,21.181 41.098,20.599 41.068,20.292C40.976,17.992 40.362,16.229 39.228,15.002C38.124,13.775 36.606,13.162 34.674,13.162C32.742,13.162 31.208,13.775 30.074,15.002C28.939,16.229 28.341,17.992 28.28,20.292L28.234,22.04L28.28,23.788C28.341,26.088 28.939,27.851 30.074,29.078C31.208,30.305 32.742,30.918 34.674,30.918ZM29.522,5.618C29.215,5.618 28.97,5.526 28.786,5.342C28.602,5.158 28.51,4.913 28.51,4.606L28.51,3.18C28.51,2.873 28.602,2.628 28.786,2.444C28.97,2.26 29.215,2.168 29.522,2.168L39.78,2.168C40.086,2.168 40.332,2.26 40.516,2.444C40.73,2.628 40.838,2.873 40.838,3.18L40.838,4.606C40.838,4.913 40.73,5.158 40.516,5.342C40.332,5.526 40.086,5.618 39.78,5.618L29.522,5.618ZM60.03,34.46C56.84,34.46 54.433,33.417 52.808,31.332C51.182,29.247 50.324,26.609 50.232,23.42L50.186,22.04L50.232,20.66C50.324,17.501 51.182,14.879 52.808,12.794C54.433,10.678 56.84,9.62 60.03,9.62C63.188,9.62 65.672,10.739 67.482,12.978L67.482,2.398C67.482,2.091 67.574,1.846 67.758,1.662C67.972,1.447 68.233,1.34 68.54,1.34L70.748,1.34C71.054,1.34 71.3,1.447 71.484,1.662C71.698,1.846 71.806,2.091 71.806,2.398L71.806,32.942C71.806,33.249 71.698,33.509 71.484,33.724C71.3,33.908 71.054,34 70.748,34L68.678,34C68.371,34 68.11,33.908 67.896,33.724C67.712,33.509 67.62,33.249 67.62,32.942L67.62,31.01C65.841,33.31 63.311,34.46 60.03,34.46ZM60.996,30.734C63.112,30.734 64.691,30.044 65.734,28.664C66.807,27.253 67.39,25.582 67.482,23.65C67.512,23.313 67.528,22.73 67.528,21.902C67.528,21.043 67.512,20.445 67.482,20.108C67.42,18.299 66.838,16.719 65.734,15.37C64.63,14.021 63.05,13.346 60.996,13.346C58.818,13.346 57.224,14.021 56.212,15.37C55.23,16.719 54.694,18.498 54.602,20.706L54.556,22.04C54.556,27.836 56.702,30.734 60.996,30.734ZM85.317,34.46C83.815,34.46 82.419,34.153 81.131,33.54C79.843,32.927 78.816,32.099 78.049,31.056C77.313,29.983 76.945,28.802 76.945,27.514C76.945,25.49 77.773,23.834 79.429,22.546C81.116,21.227 83.385,20.369 86.237,19.97L93.091,19.004L93.091,17.67C93.091,14.542 91.297,12.978 87.709,12.978C86.36,12.978 85.256,13.269 84.397,13.852C83.539,14.404 82.894,15.063 82.465,15.83C82.373,16.106 82.251,16.305 82.097,16.428C81.975,16.551 81.791,16.612 81.545,16.612L79.567,16.612C79.291,16.612 79.046,16.52 78.831,16.336C78.647,16.121 78.555,15.876 78.555,15.6C78.586,14.864 78.923,14.036 79.567,13.116C80.242,12.165 81.269,11.353 82.649,10.678C84.029,9.973 85.731,9.62 87.755,9.62C91.19,9.62 93.659,10.433 95.161,12.058C96.664,13.653 97.415,15.646 97.415,18.038L97.415,32.942C97.415,33.249 97.308,33.509 97.093,33.724C96.909,33.908 96.664,34 96.357,34L94.241,34C93.935,34 93.674,33.908 93.459,33.724C93.275,33.509 93.183,33.249 93.183,32.942L93.183,30.964C92.509,31.945 91.527,32.773 90.239,33.448C88.951,34.123 87.311,34.46 85.317,34.46ZM86.283,31.01C88.277,31.01 89.902,30.366 91.159,29.078C92.447,27.759 93.091,25.873 93.091,23.42L93.091,22.132L87.755,22.914C85.578,23.221 83.937,23.742 82.833,24.478C81.729,25.183 81.177,26.088 81.177,27.192C81.177,28.419 81.683,29.369 82.695,30.044C83.707,30.688 84.903,31.01 86.283,31.01ZM104.718,5.618C104.411,5.618 104.151,5.526 103.936,5.342C103.752,5.127 103.66,4.867 103.66,4.56L103.66,2.076C103.66,1.769 103.752,1.509 103.936,1.294C104.151,1.079 104.411,0.972 104.718,0.972L107.616,0.972C107.923,0.972 108.183,1.079 108.398,1.294C108.613,1.509 108.72,1.769 108.72,2.076L108.72,4.56C108.72,4.867 108.613,5.127 108.398,5.342C108.183,5.526 107.923,5.618 107.616,5.618L104.718,5.618ZM105.086,34C104.779,34 104.519,33.908 104.304,33.724C104.12,33.509 104.028,33.249 104.028,32.942L104.028,11.138C104.028,10.831 104.12,10.586 104.304,10.402C104.519,10.187 104.779,10.08 105.086,10.08L107.294,10.08C107.601,10.08 107.846,10.187 108.03,10.402C108.245,10.586 108.352,10.831 108.352,11.138L108.352,32.942C108.352,33.249 108.245,33.509 108.03,33.724C107.846,33.908 107.601,34 107.294,34L105.086,34Z" style="fill-rule:nonzero;"/>
    </g>
</svg>
