<?xml version="1.0" encoding="UTF-8" standalone="no"?>
<!DOCTYPE svg PUBLIC "-//W3C//DTD SVG 1.1//EN" "http://www.w3.org/Graphics/SVG/1.1/DTD/svg11.dtd">
<svg width="100%" height="100%" viewBox="0 0 812 802" version="1.1" xmlns="http://www.w3.org/2000/svg" xmlns:xlink="http://www.w3.org/1999/xlink" xml:space="preserve" xmlns:serif="http://www.serif.com/" style="fill-rule:evenodd;clip-rule:evenodd;stroke-linejoin:round;stroke-miterlimit:2;">
    <g transform="matrix(1.26873,0,0,1.26873,-28.4667,14.7664)">
        <g transform="matrix(1.90424,0,0,1.90424,387.919,412.186)">
            <path d="M127,25C127,11.202 115.798,0 102,0L44,0C30.202,0 19,11.202 19,25C19,38.798 30.202,50 44,50L102,50C115.798,50 127,38.798 127,25Z" style="fill:rgb(160,205,210);"/>
        </g>
        <g transform="matrix(1.90938,0,0,1.90938,387.775,411.928)">
            <path d="M28,44.523C32.302,48.024 37.79,50.123 43.769,50.123L101.769,50.123C115.576,50.123 126.769,38.93 126.769,25.123C126.769,18.497 124.191,12.474 119.985,8L28,44.523Z" style="fill:rgb(91,169,177);"/>
        </g>
        <g transform="matrix(1.90424,0,0,1.90424,394.495,387.523)">
            <path d="M49,92C49,78.754 38.246,68 25,68L24,68C10.754,68 0,78.754 0,92C0,105.246 10.754,116 24,116L25,116C38.246,116 49,105.246 49,92Z" style="fill:rgb(160,205,210);"/>
        </g>
        <g transform="matrix(1.91027,0,0,1.91027,395.065,388.027)">
            <path d="M5,106.722C9.402,112.085 16.082,115.507 23.562,115.507L24.562,115.507C37.817,115.507 48.562,104.762 48.562,91.507C48.562,87.338 47.499,83.417 45.628,80L5,106.722Z" style="fill:rgb(91,169,177);"/>
        </g>
        <g transform="matrix(1,0,0,1,46.0376,1.26232e-13)">
            <path d="M287.311,47.102C293.711,19.772 318.24,-0.58 347.522,-0.58L432.457,-0.58C462.591,-0.58 487.691,20.974 493.18,49.506C523.006,57.537 544.959,84.773 544.959,117.137L544.959,123.097C571.294,123.098 592.642,144.446 592.642,170.78L592.642,234.854C592.642,261.188 571.294,282.536 544.959,282.537L544.959,289.987C544.959,328.665 513.603,360.021 474.925,360.022L423.723,360.022C419.714,390.3 393.798,413.665 362.423,413.665L174.671,413.665C142.39,413.665 115.885,388.93 113.078,357.378C93.859,351.934 78.002,338.491 69.331,320.874C66.981,321.142 64.591,321.279 62.169,321.279C27.605,321.279 -0.415,293.26 -0.415,258.695L-0.415,148.429C-0.415,113.865 27.605,85.845 62.169,85.845C64.591,85.845 66.981,85.982 69.331,86.25C80.744,63.06 104.61,47.102 132.203,47.102L287.311,47.102Z" style="fill:rgb(160,205,210);fill-rule:nonzero;"/>
        </g>
        <g transform="matrix(1.49039,0,0,1.49039,159.519,80.3701)">
            <path d="M0,187.267C2.779,207.489 20.126,223.065 41.111,223.065L167.111,223.065C188.167,223.065 205.56,207.385 208.25,187.065L242.611,187.065C268.569,187.065 289.611,166.022 289.611,140.065L289.611,135.065C307.284,135.065 321.611,120.738 321.611,103.065L321.611,60.065C321.611,42.391 307.284,28.065 289.611,28.065L289.611,24.065C289.611,15.27 287.196,7.039 282.992,0L0,187.267Z" style="fill:rgb(91,169,177);"/>
        </g>
    </g>
</svg>
